<?xml version="1.0" encoding="UTF-8"?>
<svg width="500px" height="500px" viewBox="0 0 500 500" version="1.1" xmlns="http://www.w3.org/2000/svg">
    <title>Property Type Icons</title>
    <defs>
        <linearGradient id="urbanGradient" x1="0%" y1="0%" x2="100%" y2="100%">
            <stop offset="0%" stop-color="#1976D2" />
            <stop offset="100%" stop-color="#0D47A1" />
        </linearGradient>
        <linearGradient id="ruralGradient" x1="0%" y1="0%" x2="100%" y2="100%">
            <stop offset="0%" stop-color="#689F38" />
            <stop offset="100%" stop-color="#33691E" />
        </linearGradient>
        <linearGradient id="commercialGradient" x1="0%" y1="0%" x2="100%" y2="100%">
            <stop offset="0%" stop-color="#F57C00" />
            <stop offset="100%" stop-color="#E65100" />
        </linearGradient>
        <linearGradient id="industrialGradient" x1="0%" y1="0%" x2="100%" y2="100%">
            <stop offset="0%" stop-color="#616161" />
            <stop offset="100%" stop-color="#212121" />
        </linearGradient>
    </defs>
    
    <g stroke="none" stroke-width="1" fill="none" fill-rule="evenodd">
        <!-- Urban House Icon -->
        <g transform="translate(50, 50)">
            <title>Urban Property</title>
            <circle fill="url(#urbanGradient)" cx="50" cy="50" r="50"></circle>
            <!-- Building -->
            <rect fill="#ECEFF1" x="25" y="25" width="50" height="50"></rect>
            <!-- Roof -->
            <rect fill="#546E7A" x="22" y="20" width="56" height="5"></rect>
            <!-- Windows -->
            <rect fill="#29B6F6" x="30" y="32" width="12" height="12"></rect>
            <rect fill="#29B6F6" x="58" y="32" width="12" height="12"></rect>
            <rect fill="#29B6F6" x="30" y="52" width="12" height="12"></rect>
            <rect fill="#29B6F6" x="58" y="52" width="12" height="12"></rect>
            <!-- Door -->
            <rect fill="#37474F" x="45" y="60" width="10" height="15"></rect>
        </g>
        
        <!-- Rural House Icon -->
        <g transform="translate(170, 50)">
            <title>Rural Property</title>
            <circle fill="url(#ruralGradient)" cx="50" cy="50" r="50"></circle>
            <!-- House -->
            <rect fill="#E8D8C0" x="25" y="40" width="50" height="35"></rect>
            <!-- Roof -->
            <polygon fill="#8D6E63" points="50 20 20 40 80 40"></polygon>
            <!-- Door -->
            <rect fill="#795548" x="45" y="55" width="10" height="20"></rect>
            <!-- Window -->
            <rect fill="#B3E5FC" x="30" y="45" width="10" height="10"></rect>
            <rect fill="#B3E5FC" x="60" y="45" width="10" height="10"></rect>
            <!-- Chimney -->
            <rect fill="#5D4037" x="70" y="25" width="5" height="15"></rect>
            <!-- Tree -->
            <rect fill="#795548" x="15" y="50" width="5" height="25"></rect>
            <circle fill="#388E3C" cx="17" cy="40" r="10"></circle>
        </g>
        
        <!-- Commercial Building Icon -->
        <g transform="translate(50, 170)">
            <title>Commercial Property</title>
            <circle fill="url(#commercialGradient)" cx="50" cy="50" r="50"></circle>
            <!-- Store Front -->
            <rect fill="#FAFAFA" x="20" y="30" width="60" height="45"></rect>
            <!-- Roof -->
            <rect fill="#E65100" x="18" y="25" width="64" height="5"></rect>
            <!-- Door -->
            <rect fill="#795548" x="43" y="55" width="14" height="20"></rect>
            <!-- Windows -->
            <rect fill="#BBDEFB" x="22" y="35" width="20" height="15"></rect>
            <rect fill="#BBDEFB" x="58" y="35" width="20" height="15"></rect>
            <!-- Store Sign -->
            <rect fill="#FFCA28" x="30" y="15" width="40" height="10"></rect>
            <line x1="35" y1="20" x2="65" y2="20" stroke="#F57F17" stroke-width="2"></line>
        </g>
        
        <!-- Industrial Building Icon -->
        <g transform="translate(170, 170)">
            <title>Industrial Property</title>
            <circle fill="url(#industrialGradient)" cx="50" cy="50" r="50"></circle>
            <!-- Factory Building -->
            <rect fill="#BDBDBD" x="15" y="40" width="70" height="35"></rect>
            <!-- Factory Roof -->
            <polygon fill="#757575" points="50 25 15 40 85 40"></polygon>
            <!-- Smokestacks -->
            <rect fill="#424242" x="30" y="15" width="8" height="25"></rect>
            <rect fill="#424242" x="50" y="20" width="8" height="20"></rect>
            <rect fill="#424242" x="70" y="15" width="8" height="25"></rect>
            <!-- Factory Door -->
            <rect fill="#424242" x="42" y="55" width="16" height="20"></rect>
            <!-- Factory Windows -->
            <rect fill="#B0BEC5" x="25" y="45" width="10" height="10"></rect>
            <rect fill="#B0BEC5" x="65" y="45" width="10" height="10"></rect>
            <!-- Gear Icon -->
            <circle fill="#616161" cx="50" cy="50" r="12"></circle>
            <circle fill="#BDBDBD" cx="50" cy="50" r="5"></circle>
            <line x1="50" y1="38" x2="50" y2="43" stroke="#9E9E9E" stroke-width="3" stroke-linecap="round"></line>
            <line x1="50" y1="57" x2="50" y2="62" stroke="#9E9E9E" stroke-width="3" stroke-linecap="round"></line>
            <line x1="38" y1="50" x2="43" y2="50" stroke="#9E9E9E" stroke-width="3" stroke-linecap="round"></line>
            <line x1="57" y1="50" x2="62" y2="50" stroke="#9E9E9E" stroke-width="3" stroke-linecap="round"></line>
        </g>
        
        <!-- Agricultural Land Icon -->
        <g transform="translate(50, 290)">
            <title>Agricultural Property</title>
            <circle fill="#8BC34A" cx="50" cy="50" r="50"></circle>
            <!-- Farm Field Lines -->
            <path d="M10,45 C20,42 30,44 40,42 C50,40 60,42 70,44 C80,46 90,44 90,44 L90,80 L10,80 L10,45 Z" fill="#CDDC39"></path>
            <line x1="10" y1="55" x2="90" y2="55" stroke="#7CB342" stroke-width="1"></line>
            <line x1="10" y1="65" x2="90" y2="65" stroke="#7CB342" stroke-width="1"></line>
            <line x1="10" y1="75" x2="90" y2="75" stroke="#7CB342" stroke-width="1"></line>
            <!-- Barn -->
            <rect fill="#BF360C" x="60" y="30" width="20" height="15"></rect>
            <!-- Barn Roof -->
            <polygon fill="#6D4C41" points="70 20 55 30 85 30"></polygon>
            <!-- Tractor -->
            <rect fill="#F57F17" x="25" y="35" width="15" height="10"></rect>
            <circle fill="#424242" cx="25" cy="45" r="5"></circle>
            <circle fill="#424242" cx="40" cy="45" r="5"></circle>
            <rect fill="#F57F17" x="40" y="30" width="5" height="5"></rect>
        </g>
        
        <!-- Vacant Land Icon -->
        <g transform="translate(170, 290)">
            <title>Vacant Land</title>
            <circle fill="#9CCC65" cx="50" cy="50" r="50"></circle>
            <!-- Hills -->
            <path d="M0,80 C10,60 30,70 40,65 C50,60 60,70 70,65 C80,60 90,70 100,80 L0,80 Z" fill="#7CB342"></path>
            <!-- Small Trees -->
            <rect fill="#795548" x="25" y="50" width="3" height="15"></rect>
            <circle fill="#388E3C" cx="26.5" cy="45" r="5"></circle>
            <rect fill="#795548" x="40" y="55" width="3" height="10"></rect>
            <circle fill="#388E3C" cx="41.5" cy="50" r="4"></circle>
            <rect fill="#795548" x="75" y="55" width="3" height="10"></rect>
            <circle fill="#388E3C" cx="76.5" cy="50" r="4"></circle>
            <!-- For Sale Sign -->
            <rect fill="#FFFFFF" x="58" y="40" width="15" height="10"></rect>
            <rect fill="#E53935" x="55" y="30" width="20" height="10"></rect>
            <rect fill="#795548" x="65" y="50" width="2" height="10"></rect>
        </g>
    </g>
    
    <!-- Animations for hover effects -->
    <style>
        g {
            cursor: pointer;
            transition: transform 0.3s ease;
        }
        g:hover {
            transform: scale(1.1);
        }
    </style>
</svg> 